# AST/ASF file generated using VICON BodyLanguage
# -----------------------------------------------
:version 1.10
:name VICON
:units
  mass 1.0
  length 0.45
  angle deg
:documentation
   .ast/.asf automatically generated from VICON data using
   VICON BodyBuilder and BodyLanguage model FoxedUp or BRILLIANT.MOD
:root
   order TX TY TZ RX RY RZ
   axis XYZ
   position 0 0 0  
   orientation 0 0 0 
:bonedata
  begin
     id 1 
     name lhipjoint
     direction 0.693937 -0.600361 0.397515 
     length 2.37164 
     axis 0 0 0  XYZ
  end
  begin
     id 2 
     name lfemur
     direction 0.34202 -0.939693 0  
     length 6.18497  
     axis 0 0 20  XYZ
    dof rx ry rz
    limits (-160.0 20.0)
           (-70.0 70.0)
           (-60.0 70.0)
  end
  begin
     id 3 
     name ltibia
     direction 0.34202 -0.939693 0   
     length 6.91601   
     axis 0 0 20   XYZ
    dof rx
    limits (-10.0 170.0)
  end
  begin
     id 4 
     name lfoot
     direction 0.0978718 -0.2689 0.958182   
     length 1.81453   
     axis -90 7.62852e-016 20   XYZ
    dof rx rz
    limits (-45.0 90.0)
           (-70.0 20.0)
  end
  begin
     id 5 
     name ltoes
     direction 1.53569e-011 -4.21951e-011 1   
     length 0.912052   
     axis -90 7.62852e-016 20   XYZ
    dof rx
    limits (-90.0 20.0)
  end
  begin
     id 6 
     name rhipjoint
     direction -0.643996 -0.637876 0.422354   
     length 2.23216  
     axis 0 0 0  XYZ 
  end
  begin
     id 7 
     name rfemur
     direction -0.34202 -0.939693 0   
     length 6.15404   
     axis 0 0 -20   XYZ
    dof rx ry rz
    limits (-160.0 20.0)
           (-70.0 70.0)
           (-70.0 60.0)
  end
  begin
     id 8 
     name rtibia
     direction -0.34202 -0.939693 0   
     length 6.86744   
     axis 0 0 -20   XYZ
    dof rx
    limits (-10.0 170.0)
 end
 begin
     id 9 
     name rfoot
     direction -0.118701 -0.326127 0.937844   
     length 1.9243  
     axis -90 -7.62852e-016 -20   XYZ
    dof rx rz
    limits (-45.0 90.0)
           (-20.0 70.0)
  end
  begin
     id 10 
     name rtoes
     direction -1.5356e-011 -4.2181e-011 1   
     length 0.958865   
     axis -90 -7.62852e-016 -20   XYZ
    dof rx
    limits (-90.0 20.0)
  end
  begin
     id 11 
     name lowerback
     direction 0.0310826 0.968686 -0.246334   
     length 2.00021   
     axis 0 0 0   XYZ
    dof rx ry rz
    limits (-20.0 45.0)
           (-30.0 30.0)
           (-30.0 30.0)
  end
  begin
     id 12 
     name upperback
     direction -0.0152834 0.999474 -0.0286152   
     length 2.03728   
     axis 0 0 0   XYZ
    dof rx ry rz
    limits (-20.0 45.0)
           (-30.0 30.0)
           (-30.0 30.0)
  end
  begin
     id 13 
     name thorax
     direction -0.0323701 0.996236 0.0804149   
     length 2.16   
     axis 0 0 0   XYZ
    dof rx ry rz
    limits (-20.0 45.0)
           (-30.0 30.0)
           (-30.0 30.0)
  end
  begin
     id 14 
     name lowerneck
     direction 0.0307935 0.982251 0.185027   
     length 1.43558   
     axis 0 0 0   XYZ
    dof rx ry rz
    limits (-20.0 45.0)
           (-30.0 30.0)
           (-30.0 30.0)
  end
  begin
     id 15 
     name upperneck
     direction -0.0927153 0.994775 0.0427454   
     length 1.44603   
     axis 0 0 0   XYZ
    dof rx ry rz
    limits (-20.0 45.0)
           (-30.0 30.0)
           (-30.0 30.0)
  end
  begin
     id 16
     name head
     direction -0.0341265 0.999406 -0.00472033  
     length 1.45931  
     axis 0 0 0   XYZ
    dof rx ry rz
    limits (-20.0 45.0)
           (-30.0 30.0)
           (-30.0 30.0)
  end
  begin
     id 17 
     name lclavicle
     direction 0.820755 0.555306 -0.134151  
     length 2.66075  
     axis 0 0 0   XYZ
    dof ry rz
    limits (-20.0 10.0)
           (0.0 20.0)
  end
  begin
     id 18 
     name lhumerus
     direction 1 -4.48971e-011 5.24853e-027   
     length 5.0546   
     axis -180 -30 -90   XYZ
    dof rx ry rz
    limits (-60.0 90.0)
           (-90.0 90.0)
           (-90.0 90.0)
  end
  begin
     id 19
     name lradius
     direction 1 -4.48971e-011 2.76575e-028   
     length 3.39013   
     axis -180 -30 -90   XYZ
    dof rx
    limits (-10.0 170.0)
  end
  begin
     id 20
     name lwrist
     direction 1 -4.48939e-011 -2.27826e-027   
     length 1.69507   
     axis 2.17013e-015 90 90   XYZ
    dof ry
    limits (-180.0 0.0)
 end
  begin
     id 21 
     name lhand
     direction 1 -4.49009e-011 -4.55652e-027   
     length 0.572425   
     axis 2.90745e-015 90 90   XYZ
    dof rx rz
    limits (-90.0 90.0)
           (-45.0 45.0)
  end
  begin
     id 22 
     name lfingers
     direction 1 -4.48955e-011 -9.11303e-027   
     length 0.461504   
     axis 5.81489e-015 90 90   XYZ
    dof rx
    limits (0.0 90.0)
  end
  begin
     id 23
     name lthumb
     direction 0.707107 -6.34929e-011 0.707107   
     length 0.66263   
     axis -90 45 2.85299e-015   XYZ
    dof rx rz
    limits (-45.0 45.0)
           (-45.0 45.0)
  end
  begin
     id 24 
     name rclavicle
     direction -0.754477 0.632921 -0.173712   
     length 2.73081  
     axis 0 0 0   XYZ 
    dof ry rz
    limits (-10.0 20.0)
           (-20.0 0.0)
  end
  begin
     id 25 
     name rhumerus
     direction -1 -4.48969e-011 5.1496e-027  
     length 5.0701   
     axis -180 30 90   XYZ
    dof rx ry rz
    limits (-90.0 60.0)
           (-90.0 90.0)
           (-90.0 90.0)
  end
  begin
     id 26 
     name rradius
     direction -1 -4.48967e-011 -7.15624e-028   
     length 3.14957   
     axis -180 30 90   XYZ
    dof rx
    limits (-10.0 170.0)
  end
  begin
     id 27 
     name rwrist
     direction -1 -4.48938e-011 -2.27826e-027   
     length 1.57479   
     axis 2.17013e-015 -90 -90   XYZ
    dof ry
    limits (-180.0 0.0)
  end
  begin
     id 28
     name rhand
     direction -1 -4.49008e-011 -4.55652e-027   
     length 0.718191   
     axis 2.90745e-015 -90 -90   XYZ
    dof rx rz
    limits (-90.0 90.0)
           (-45.0 45.0)
  end
  begin
     id 29
     name rfingers
     direction -1 -4.48953e-011 -9.11303e-027   
     length 0.579024   
     axis 5.81489e-015 -90 -90   XYZ
    dof rx
    limits (0.0 90.0)
  end
  begin
     id 30
     name rthumb
     direction -0.707107 -6.34937e-011 0.707107   
     length 0.831366   
     axis -90 -45 -2.85299e-015   XYZ
    dof rx rz
    limits (-45.0 45.0)
           (-45.0 45.0)
  end
:hierarchy
  begin
    root lhipjoint rhipjoint lowerback
    lhipjoint lfemur
    lfemur ltibia
    ltibia lfoot
    lfoot ltoes
    rhipjoint rfemur
    rfemur rtibia
    rtibia rfoot
    rfoot rtoes
    lowerback upperback
    upperback thorax
    thorax lowerneck lclavicle rclavicle
    lowerneck upperneck
    upperneck head
    lclavicle lhumerus
    lhumerus lradius
    lradius lwrist
    lwrist lhand lthumb
    lhand lfingers
    rclavicle rhumerus
    rhumerus rradius
    rradius rwrist
    rwrist rhand rthumb
    rhand rfingers
  end

#!OML:ASF H:\Male1\Project 1\Capture day 1\Session 1\Male1.ASF
:FULLY-SPECIFIED
:DEGREES
26
root 21.8896 15.2472 0.391459 141.356 -86.3408 -145.347
lowerback 7.29038 1.4941 -0.485005
upperback 6.89765 1.71573 -1.14502
thorax 3.07268 0.752225 -0.992903
lowerneck -6.03361 2.2393 6.22149
upperneck 1.60231 2.58163 -2.31346
head 1.66883 1.27957 -1.72414
rclavicle 5.96354e-016 1.19271e-014
rhumerus 6.18645 36.149 -88.0303
rradius 131.477
rwrist -1.61837
rhand -18.0074 25.1588
rfingers 7.12502
rthumb 8.26323 -4.65958
lclavicle 5.96354e-016 1.19271e-014
lhumerus 8.28462 -20.4234 82.2576
lradius 140.568
lwrist 4.88205
lhand 4.83607 -12.7274
lfingers 7.12502
lthumb 30.2136 14.821
rfemur -5.04753 4.75447 21.6243
rtibia 29.0569
rfoot -25.0687 -27.0372
rtoes -25.708
lfemur -5.10763 -10.0486 -13.5163
ltibia 30.407
lfoot -21.2426 19.2587
ltoes -14.1176
27
root 21.8874 15.2212 0.379377 135.832 -86.5797 -140.041
lowerback 7.43556 1.42512 -0.504298
upperback 7.06923 1.61166 -1.12737
thorax 3.16998 0.694283 -0.96119
lowerneck -5.90878 2.03069 5.5631
upperneck 1.57103 2.33676 -1.63558
head 1.59829 1.16649 -1.39567
rclavicle -6.55989e-015 -3.18055e-015
rhumerus 6.72225 36.3308 -87.8035
rradius 132.235
rwrist -1.18006
rhand -17.4913 25.6962
rfingers 7.12502
rthumb 8.76125 -4.10199
lclavicle -6.55989e-015 -3.18055e-015
lhumerus 9.01641 -20.3306 82.1035
lradius 140.745
lwrist 4.77016
lhand 4.639 -12.782
lfingers 7.12502
lthumb 30.0256 14.8006
rfemur -5.21098 4.06749 21.7116
rtibia 29.8408
rfoot -25.2115 -26.8269
rtoes -26.0206
lfemur -5.38336 -9.7504 -13.2738
ltibia 31.1315
lfoot -21.2939 18.7196
ltoes -14.7041
28
root 21.8852 15.1932 0.365052 132.127 -86.9914 -136.543
lowerback 7.52903 1.44295 -0.712534
upperback 7.28009 1.61466 -1.24162
thorax 3.33785 0.683658 -0.963521
lowerneck -5.87197 1.91392 5.35534
upperneck 1.28058 2.17863 -1.10342
head 1.47788 1.09121 -1.19304
rclavicle -1.2921e-014 4.6118e-014
rhumerus 7.21024 36.2859 -87.6376
rradius 132.955
rwrist -0.873238
rhand -16.9035 25.9603
rfingers 7.12502
rthumb 9.32845 -3.81326
lclavicle -1.2921e-014 4.6118e-014
lhumerus 9.76685 -20.5666 81.9911
lradius 140.847
lwrist 4.66097
lhand 4.4147 -12.9259
lfingers 7.12502
lthumb 29.8115 14.6954
rfemur -5.40969 3.29357 21.5247
rtibia 30.6662
rfoot -25.294 -26.6162
rtoes -26.6784
lfemur -5.75688 -9.4286 -13.2744
ltibia 32.0014
lfoot -21.5209 18.0103
ltoes -14.3345
29
root 21.8827 15.1635 0.350634 124.859 -87.1906 -129.503
lowerback 7.74768 1.44215 -0.707708
upperback 7.43374 1.60104 -1.28049
thorax 3.38018 0.673095 -1.0096
lowerneck -5.97702 1.81137 5.27821
upperneck 1.24295 2.0291 -0.776745
head 1.4721 1.0208 -1.07954
rclavicle -1.98785e-016 -2.38542e-015
rhumerus 7.48188 36.2941 -87.601
rradius 133.532
rwrist -0.85082
rhand -16.0317 26.1738
rfingers 7.12502
rthumb 10.1695 -3.56044
lclavicle -1.98785e-016 -2.38542e-015
lhumerus 10.1313 -20.7723 82.0658
lradius 140.966
lwrist 4.63795
lhand 4.42359 -13.0882
lfingers 7.12502
lthumb 29.82 14.5315
rfemur -5.63658 2.5427 21.5974
rtibia 31.6062
rfoot -25.3829 -26.4664
rtoes -27.509
lfemur -6.17461 -9.02555 -13.0013
ltibia 32.964
lfoot -21.7593 17.2658
ltoes -14.5578
30
root 21.8791 15.1268 0.336496 116.893 -86.9898 -121.798
lowerback 8.05265 1.43418 -0.435963
upperback 7.55264 1.58905 -1.2137
thorax 3.34293 0.67326 -1.09783
lowerneck -6.10979 1.78318 5.21402
upperneck 1.19394 1.97941 -0.542866
head 1.47308 0.998429 -0.9949
rclavicle 2.5842e-015 1.19271e-014
rhumerus 7.53284 36.6582 -87.6538
rradius 133.958
rwrist -0.796709
rhand -15.4154 26.2819
rfingers 7.12502
rthumb 10.7641 -3.42228
lclavicle 2.5842e-015 1.19271e-014
lhumerus 10.2042 -20.8571 82.3069
lradius 141.168
lwrist 4.68031
lhand 4.4996 -13.0331
lfingers 7.12502
lthumb 29.8926 14.5735
rfemur -5.90574 1.97595 22.0147
rtibia 32.6779
rfoot -25.5798 -26.2609
rtoes -28.0781
lfemur -6.52569 -8.38399 -12.4047
ltibia 33.9797
lfoot -21.8212 16.7919
ltoes -16.9902
31
root 21.8707 15.0823 0.32388 113.541 -86.9578 -118.695
lowerback 8.23795 1.44705 -0.416183
upperback 7.69811 1.59467 -1.23697
thorax 3.39586 0.672712 -1.13639
lowerneck -6.35333 1.79818 5.25086
upperneck 1.19281 1.97372 -0.367089
head 1.5132 0.998189 -0.944546
rclavicle 1.11319e-014 8.74653e-015
rhumerus 7.49675 37.2696 -87.6998
rradius 134.266
rwrist -0.542084
rhand -15.3011 26.0554
rfingers 7.12502
rthumb 10.8744 -3.64302
lclavicle 1.11319e-014 8.74653e-015
lhumerus 10.141 -20.8187 82.6217
lradius 141.312
lwrist 4.67949
lhand 4.41694 -13.0681
lfingers 7.12502
lthumb 29.8137 14.5527
rfemur -6.2616 1.40987 22.0962
rtibia 33.8956
rfoot -25.9317 -25.9129
rtoes -28.4334
lfemur -6.85615 -7.75386 -12.1473
ltibia 35.0639
lfoot -21.9555 16.4733
ltoes -19.4597
32
root 21.8582 15.0371 0.315365 112.164 -87.1244 -117.58
lowerback 8.53884 1.43241 -0.523436
upperback 7.77911 1.55719 -1.36016
thorax 3.3159 0.647881 -1.20807
lowerneck -6.42292 1.68616 4.81061
upperneck 1.14816 1.82877 0.354976
head 1.48905 0.935702 -0.644694
rclavicle -3.37934e-015 7.95139e-015
rhumerus 7.28656 37.9166 -87.847
rradius 134.443
rwrist -0.449097
rhand -15.193 25.9662
rfingers 7.12502
rthumb 10.9786 -3.72669
lclavicle -3.37934e-015 7.95139e-015
lhumerus 9.5978 -20.7164 83.0513
lradius 141.465
lwrist 4.45601
lhand 4.27126 -13.4776
lfingers 7.12502
lthumb 29.6746 14.168
rfemur -6.69047 0.696078 21.8692
rtibia 35.2968
rfoot -26.2959 -25.498
rtoes -29.1535
lfemur -7.21802 -7.41 -12.1585
ltibia 36.2039
lfoot -22.4835 15.88
ltoes -18.7841
33
root 21.846 14.9846 0.307876 113.212 -87.2028 -118.876
lowerback 8.70698 1.49236 -0.575794
upperback 7.9399 1.62035 -1.4629
thorax 3.39661 0.67394 -1.29153
lowerneck -6.75267 1.57949 4.45686
upperneck 1.20677 1.66934 1.01309
head 1.54926 0.867855 -0.381162
rclavicle 1.59028e-014 -2.78299e-014
rhumerus 7.19014 38.4169 -87.8822
rradius 134.418
rwrist -0.266736
rhand -15.1448 25.9761
rfingers 7.12502
rthumb 11.0251 -3.71436
lclavicle 1.59028e-014 -2.78299e-014
lhumerus 8.94901 -20.7376 83.5574
lradius 141.69
lwrist 4.13628
lhand 4.08904 -13.5456
lfingers 7.12502
lthumb 29.5007 14.1309
rfemur -7.22548 0.0678003 21.6657
rtibia 36.8125
rfoot -26.7049 -25.0257
rtoes -29.6889
lfemur -7.54644 -6.92834 -12.1492
ltibia 37.3943
lfoot -22.9413 15.487
ltoes -19.1339
34
root 21.8358 14.9233 0.298691 116.641 -87.2993 -122.512
lowerback 8.68199 1.61462 -0.74331
upperback 8.17617 1.76142 -1.54008
thorax 3.66106 0.731598 -1.28363
lowerneck -6.95055 1.36926 4.25131
upperneck 1.08098 1.37959 1.44283
head 1.53167 0.727586 -0.220862
rclavicle -2.5842e-014 3.18055e-014
rhumerus 7.31585 38.7864 -87.7192
rradius 134.241
rwrist -0.107879
rhand -14.9812 25.882
rfingers 7.12502
rthumb 11.1829 -3.8
lclavicle -2.5842e-014 3.18055e-014
lhumerus 8.48609 -20.7648 84.0228
lradius 141.886
lwrist 3.82862
lhand 3.76105 -13.1253
lfingers 7.12502
lthumb 29.1875 14.6061
rfemur -7.8548 -0.426456 21.4092
rtibia 38.3646
rfoot -27.2237 -24.5097
rtoes -29.5527
lfemur -7.84038 -6.20642 -12.2151
ltibia 38.5931
lfoot -23.3098 15.4763
ltoes -21.9285
35
root 21.8261 14.8638 0.290721 117.69 -87.1457 -123.879
lowerback 9.05839 1.7175 -0.373859
upperback 8.25182 1.90333 -1.72399
thorax 3.55773 0.820664 -1.69806
lowerneck -7.1327 1.24211 4.59961
upperneck 0.968566 1.16243 1.57701
head 1.5264 0.619879 -0.24469
rclavicle 1.27222e-014 4.77083e-015
rhumerus 7.1267 38.9815 -87.9896
rradius 134.004
rwrist -0.0381652
rhand -14.7143 25.8149
rfingers 7.12502
rthumb 11.4403 -3.85301
lclavicle 1.27222e-014 4.77083e-015
lhumerus 7.77665 -20.8632 84.2712
lradius 142.073
lwrist 3.68122
lhand 3.52836 -13.2522
lfingers 7.12502
lthumb 28.9653 14.5175
rfemur -8.3353 -0.879454 21.4597
rtibia 39.9004
rfoot -27.6005 -24.1141
rtoes -29.631
lfemur -8.05209 -5.4801 -11.9513
ltibia 39.7779
lfoot -23.9347 15.1636
ltoes -23.09
